<svg width="30" height="30" viewBox="0 0 30 30" fill="none" xmlns="http://www.w3.org/2000/svg"><circle cx="15" cy="15" r="15" fill="#48BB74"></circle> <path d="M13.0245 11.5H8C7.72386 11.5 7.5 11.7239 7.5 12V20C7.5 21.1046 8.39543 22 9.5 22H20.5C21.6046 22 22.5 21.1046 22.5 20V14.5C22.5 14.2239 22.2761 14 22 14H15.2169C15.0492 14 14.8926 13.9159 14.8 13.776L13.4414 11.724C13.3488 11.5841 13.1922 11.5 13.0245 11.5Z" stroke="white" stroke-miterlimit="10" stroke-linecap="square"></path> <path d="M8.87939 9.5V8.5C8.87939 8.22386 9.10325 8 9.37939 8H20.6208C20.8969 8 21.1208 8.22386 21.1208 8.5V12" stroke="white" stroke-miterlimit="10" stroke-linecap="round" stroke-linejoin="round"></path></svg>