<svg width="30" height="30" viewBox="0 0 30 30" fill="none" xmlns="http://www.w3.org/2000/svg"><circle cx="15" cy="15" r="15" fill="#ECAC4B"></circle> <path d="M12.0469 17.9543L17.9558 12.0454" stroke="white" stroke-linecap="round" stroke-linejoin="round"></path> <path d="M13.8184 11.4547L15.7943 9.47873C16.4212 8.85205 17.2714 8.5 18.1578 8.5C19.0443 8.5 19.8945 8.85205 20.5214 9.47873V9.47873C21.1481 10.1057 21.5001 10.9558 21.5001 11.8423C21.5001 12.7287 21.1481 13.5789 20.5214 14.2058L18.5455 16.1818" stroke="white" stroke-linecap="round" stroke-linejoin="round"></path> <path d="M11.4547 13.8184L9.47873 15.7943C8.85205 16.4212 8.5 17.2714 8.5 18.1578C8.5 19.0443 8.85205 19.8945 9.47873 20.5214V20.5214C10.1057 21.1481 10.9558 21.5001 11.8423 21.5001C12.7287 21.5001 13.5789 21.1481 14.2058 20.5214L16.1818 18.5455" stroke="white" stroke-linecap="round" stroke-linejoin="round"></path></svg>