<svg width="310" height="212" viewBox="0 0 310 212" fill="none" xmlns="http://www.w3.org/2000/svg">
<rect width="310" height="212" rx="4" fill="white" fill-opacity="0.04"/>
<path d="M151.625 95.5C151.625 93.636 153.136 92.125 155 92.125C156.864 92.125 158.375 93.636 158.375 95.5C158.375 97.364 156.864 98.875 155 98.875C153.136 98.875 151.625 97.364 151.625 95.5Z" fill="#8C97B4"/>
<path fill-rule="evenodd" clip-rule="evenodd" d="M148.211 87.4637C148.211 84.8604 150.321 82.75 152.924 82.75H157.076C159.679 82.75 161.79 84.8604 161.79 87.4637C161.79 87.4859 161.807 87.5045 161.829 87.5063L165.173 87.7779C166.671 87.8995 167.903 89.0074 168.183 90.4841C168.896 94.2526 168.95 98.1164 168.34 101.903L168.194 102.809C167.919 104.518 166.513 105.817 164.789 105.958L161.875 106.194C157.299 106.566 152.701 106.566 148.125 106.194L145.211 105.958C143.487 105.817 142.081 104.518 141.806 102.809L141.66 101.903C141.05 98.1164 141.104 94.2526 141.817 90.4841C142.097 89.0074 143.329 87.8995 144.827 87.7779L148.171 87.5063C148.193 87.5045 148.211 87.4859 148.211 87.4637ZM155 89.875C151.893 89.875 149.375 92.3934 149.375 95.5C149.375 98.6066 151.893 101.125 155 101.125C158.107 101.125 160.625 98.6066 160.625 95.5C160.625 92.3934 158.107 89.875 155 89.875Z" fill="#8C97B4"/>
<path d="M106.794 118.939H112.93V119.901H110.46V128H109.277V119.901H106.794V118.939ZM114.386 118.38H115.569V121.903C115.803 121.522 116.128 121.236 116.544 121.045C116.96 120.846 117.419 120.746 117.922 120.746C118.32 120.746 118.693 120.811 119.04 120.941C119.386 121.062 119.685 121.253 119.937 121.513C120.197 121.764 120.4 122.081 120.548 122.462C120.695 122.843 120.769 123.29 120.769 123.801V128H119.599V123.97C119.599 123.233 119.417 122.683 119.053 122.319C118.689 121.955 118.208 121.773 117.61 121.773C117.003 121.773 116.509 121.964 116.128 122.345C115.755 122.718 115.569 123.29 115.569 124.061V128H114.386V118.38ZM125.73 121.76C125.444 121.76 125.171 121.808 124.911 121.903C124.651 121.998 124.422 122.137 124.222 122.319C124.023 122.501 123.858 122.726 123.728 122.995C123.598 123.264 123.516 123.571 123.481 123.918H127.979C127.979 123.571 127.919 123.264 127.797 122.995C127.685 122.726 127.524 122.501 127.316 122.319C127.108 122.137 126.866 121.998 126.588 121.903C126.32 121.808 126.034 121.76 125.73 121.76ZM129.058 125.803C128.963 126.132 128.82 126.44 128.629 126.726C128.447 127.003 128.218 127.246 127.94 127.454C127.672 127.662 127.355 127.827 126.991 127.948C126.627 128.061 126.224 128.117 125.782 128.117C125.271 128.117 124.799 128.03 124.365 127.857C123.941 127.684 123.572 127.437 123.26 127.116C122.948 126.795 122.701 126.41 122.519 125.959C122.346 125.5 122.259 124.988 122.259 124.425C122.259 123.862 122.346 123.355 122.519 122.904C122.693 122.453 122.931 122.068 123.234 121.747C123.546 121.426 123.919 121.184 124.352 121.019C124.786 120.846 125.262 120.759 125.782 120.759C126.302 120.759 126.77 120.846 127.186 121.019C127.611 121.192 127.971 121.431 128.265 121.734C128.569 122.037 128.798 122.397 128.954 122.813C129.119 123.229 129.201 123.68 129.201 124.165C129.201 124.295 129.197 124.416 129.188 124.529C129.188 124.642 129.18 124.759 129.162 124.88H123.468C123.494 125.244 123.572 125.565 123.702 125.842C123.832 126.119 124.001 126.353 124.209 126.544C124.417 126.726 124.656 126.869 124.924 126.973C125.193 127.068 125.479 127.116 125.782 127.116C126.32 127.116 126.753 126.995 127.082 126.752C127.42 126.509 127.654 126.193 127.784 125.803H129.058ZM127.745 119.303L127.16 120.031L125.821 119.186L124.482 120.031L123.897 119.303L125.821 118.068L127.745 119.303ZM141.046 123.97C141.046 123.233 140.868 122.683 140.513 122.319C140.157 121.955 139.685 121.773 139.096 121.773C138.498 121.773 138.012 121.964 137.64 122.345C137.267 122.726 137.081 123.303 137.081 124.074V128H135.911V123.97C135.911 123.233 135.733 122.683 135.378 122.319C135.022 121.955 134.55 121.773 133.961 121.773C133.363 121.773 132.877 121.964 132.505 122.345C132.132 122.726 131.946 123.303 131.946 124.074V128H130.763V120.876H131.946V121.903C132.18 121.522 132.496 121.236 132.895 121.045C133.293 120.846 133.727 120.746 134.195 120.746C134.784 120.746 135.308 120.876 135.768 121.136C136.227 121.396 136.574 121.795 136.808 122.332C137.016 121.812 137.349 121.418 137.809 121.149C138.277 120.88 138.784 120.746 139.33 120.746C139.737 120.746 140.114 120.811 140.461 120.941C140.816 121.062 141.124 121.253 141.384 121.513C141.644 121.764 141.847 122.081 141.995 122.462C142.142 122.843 142.216 123.29 142.216 123.801V128H141.046V123.97ZM147.622 118.38H148.805V121.903C149.039 121.522 149.364 121.236 149.78 121.045C150.196 120.846 150.655 120.746 151.158 120.746C151.557 120.746 151.929 120.811 152.276 120.941C152.623 121.062 152.922 121.253 153.173 121.513C153.433 121.764 153.637 122.081 153.784 122.462C153.931 122.843 154.005 123.29 154.005 123.801V128H152.835V123.97C152.835 123.233 152.653 122.683 152.289 122.319C151.925 121.955 151.444 121.773 150.846 121.773C150.239 121.773 149.745 121.964 149.364 122.345C148.991 122.718 148.805 123.29 148.805 124.061V128H147.622V118.38ZM155.938 120.876H157.121V128H155.938V120.876ZM155.535 117.756L157.654 119.082L157.069 119.901L154.95 118.614L155.535 117.756ZM164.35 123.97C164.35 123.233 164.168 122.683 163.804 122.319C163.44 121.955 162.959 121.773 162.361 121.773C161.754 121.773 161.26 121.964 160.879 122.345C160.506 122.718 160.32 123.29 160.32 124.061V128H159.137V120.876H160.32V121.89C160.554 121.517 160.87 121.236 161.269 121.045C161.676 120.846 162.122 120.746 162.608 120.746C163.024 120.746 163.409 120.811 163.765 120.941C164.12 121.062 164.428 121.253 164.688 121.513C164.948 121.764 165.151 122.081 165.299 122.462C165.446 122.843 165.52 123.29 165.52 123.801V128H164.35V123.97ZM167.452 118.38H168.635V121.903C168.869 121.522 169.194 121.236 169.61 121.045C170.026 120.846 170.486 120.746 170.988 120.746C171.387 120.746 171.76 120.811 172.106 120.941C172.453 121.062 172.752 121.253 173.003 121.513C173.263 121.764 173.467 122.081 173.614 122.462C173.762 122.843 173.835 123.29 173.835 123.801V128H172.665V123.97C172.665 123.233 172.483 122.683 172.119 122.319C171.755 121.955 171.274 121.773 170.676 121.773C170.07 121.773 169.576 121.964 169.194 122.345C168.822 122.718 168.635 123.29 168.635 124.061V128H167.452V118.38ZM181.508 118.536C181.517 118.345 181.56 118.181 181.638 118.042C181.725 117.903 181.829 117.791 181.95 117.704C182.08 117.617 182.223 117.557 182.379 117.522C182.544 117.479 182.709 117.457 182.873 117.457C183.22 117.457 183.51 117.557 183.744 117.756C183.987 117.947 184.108 118.207 184.108 118.536C184.108 118.718 184.078 118.874 184.017 119.004C183.965 119.134 183.892 119.242 183.796 119.329C183.71 119.416 183.614 119.481 183.51 119.524C183.406 119.567 183.302 119.593 183.198 119.602L183.172 119.888H182.496L182.47 119.056C182.808 119.056 183.034 119.013 183.146 118.926C183.259 118.831 183.315 118.696 183.315 118.523C183.315 118.402 183.268 118.306 183.172 118.237C183.086 118.168 182.982 118.133 182.86 118.133C182.722 118.133 182.596 118.159 182.483 118.211C182.379 118.263 182.314 118.371 182.288 118.536H181.508ZM178.791 124.412C178.791 123.857 178.878 123.355 179.051 122.904C179.225 122.453 179.463 122.072 179.766 121.76C180.07 121.439 180.425 121.192 180.832 121.019C181.248 120.846 181.695 120.759 182.171 120.759C182.501 120.759 182.804 120.798 183.081 120.876C183.367 120.954 183.619 121.058 183.835 121.188C184.061 121.318 184.256 121.47 184.42 121.643C184.585 121.816 184.719 121.994 184.823 122.176V120.876H186.019V128H184.823V126.674C184.719 126.865 184.581 127.047 184.407 127.22C184.243 127.393 184.048 127.549 183.822 127.688C183.597 127.818 183.346 127.922 183.068 128C182.791 128.078 182.488 128.117 182.158 128.117C181.682 128.117 181.24 128.03 180.832 127.857C180.425 127.675 180.07 127.424 179.766 127.103C179.463 126.774 179.225 126.384 179.051 125.933C178.878 125.474 178.791 124.967 178.791 124.412ZM184.823 124.425C184.823 124.009 184.758 123.641 184.628 123.32C184.498 122.991 184.321 122.713 184.095 122.488C183.879 122.263 183.623 122.089 183.328 121.968C183.034 121.847 182.726 121.786 182.405 121.786C182.076 121.786 181.764 121.847 181.469 121.968C181.183 122.081 180.932 122.25 180.715 122.475C180.499 122.692 180.325 122.965 180.195 123.294C180.065 123.623 180 123.996 180 124.412C180 124.828 180.065 125.205 180.195 125.543C180.325 125.872 180.499 126.15 180.715 126.375C180.932 126.6 181.183 126.774 181.469 126.895C181.764 127.016 182.076 127.077 182.405 127.077C182.726 127.077 183.034 127.021 183.328 126.908C183.623 126.787 183.879 126.613 184.095 126.388C184.321 126.154 184.498 125.872 184.628 125.543C184.758 125.214 184.823 124.841 184.823 124.425ZM193.232 123.97C193.232 123.233 193.05 122.683 192.686 122.319C192.322 121.955 191.841 121.773 191.243 121.773C190.636 121.773 190.142 121.964 189.761 122.345C189.388 122.718 189.202 123.29 189.202 124.061V128H188.019V120.876H189.202V121.89C189.436 121.517 189.752 121.236 190.151 121.045C190.558 120.846 191.004 120.746 191.49 120.746C191.906 120.746 192.291 120.811 192.647 120.941C193.002 121.062 193.31 121.253 193.57 121.513C193.83 121.764 194.033 122.081 194.181 122.462C194.328 122.843 194.402 123.29 194.402 123.801V128H193.232V123.97ZM196.334 118.38H197.517V121.903C197.751 121.522 198.076 121.236 198.492 121.045C198.908 120.846 199.367 120.746 199.87 120.746C200.269 120.746 200.641 120.811 200.988 120.941C201.335 121.062 201.634 121.253 201.885 121.513C202.145 121.764 202.349 122.081 202.496 122.462C202.643 122.843 202.717 123.29 202.717 123.801V128H201.547V123.97C201.547 123.233 201.365 122.683 201.001 122.319C200.637 121.955 200.156 121.773 199.558 121.773C198.951 121.773 198.457 121.964 198.076 122.345C197.703 122.718 197.517 123.29 197.517 124.061V128H196.334V118.38Z" fill="#8C97B4"/>
<rect x="0.5" y="0.5" width="309" height="211" rx="3.5" stroke="#8C97B4" stroke-opacity="0.69" stroke-dasharray="3 3"/>
</svg>
