<svg width="338" height="129" viewBox="0 0 338 129" fill="none" xmlns="http://www.w3.org/2000/svg">
<rect width="338" height="129" rx="4" fill="white" fill-opacity="0.04"/>
<path fill-rule="evenodd" clip-rule="evenodd" d="M155.781 46.625C155.781 39.3245 161.699 33.4062 169 33.4062C176.301 33.4062 182.219 39.3245 182.219 46.625V60.3333C182.219 61.1445 181.561 61.8021 180.75 61.8021C179.939 61.8021 179.281 61.1445 179.281 60.3333V46.625C179.281 40.9468 174.678 36.3438 169 36.3438C163.322 36.3438 158.719 40.9468 158.719 46.625V62.2917C158.719 65.8067 161.568 68.6562 165.083 68.6562C168.598 68.6562 171.448 65.8067 171.448 62.2917V48.5833C171.448 47.2314 170.352 46.1354 169 46.1354C167.648 46.1354 166.552 47.2314 166.552 48.5833V60.3333C166.552 61.1445 165.895 61.8021 165.083 61.8021C164.272 61.8021 163.615 61.1445 163.615 60.3333V48.5833C163.615 45.609 166.026 43.1979 169 43.1979C171.974 43.1979 174.385 45.609 174.385 48.5833V62.2917C174.385 67.4291 170.221 71.5938 165.083 71.5938C159.946 71.5938 155.781 67.4291 155.781 62.2917V46.625Z" fill="#8C97B4"/>
<path d="M108.098 82.939H114.234V83.901H111.764V92H110.581V83.901H108.098V82.939ZM115.69 82.38H116.873V85.903C117.107 85.5217 117.432 85.2357 117.848 85.045C118.264 84.8457 118.724 84.746 119.226 84.746C119.625 84.746 119.998 84.811 120.344 84.941C120.691 85.0623 120.99 85.253 121.241 85.513C121.501 85.7643 121.705 86.0807 121.852 86.462C122 86.8433 122.073 87.2897 122.073 87.801V92H120.903V87.97C120.903 87.2333 120.721 86.683 120.357 86.319C119.993 85.955 119.512 85.773 118.914 85.773C118.308 85.773 117.814 85.9637 117.432 86.345C117.06 86.7177 116.873 87.2897 116.873 88.061V92H115.69V82.38ZM127.035 85.76C126.749 85.76 126.476 85.8077 126.216 85.903C125.956 85.9983 125.726 86.137 125.527 86.319C125.328 86.501 125.163 86.7263 125.033 86.995C124.903 87.2637 124.821 87.5713 124.786 87.918H129.284C129.284 87.5713 129.223 87.2637 129.102 86.995C128.989 86.7263 128.829 86.501 128.621 86.319C128.413 86.137 128.17 85.9983 127.893 85.903C127.624 85.8077 127.338 85.76 127.035 85.76ZM130.363 89.803C130.268 90.1323 130.125 90.44 129.934 90.726C129.752 91.0033 129.522 91.246 129.245 91.454C128.976 91.662 128.66 91.8267 128.296 91.948C127.932 92.0607 127.529 92.117 127.087 92.117C126.576 92.117 126.103 92.0303 125.67 91.857C125.245 91.6837 124.877 91.4367 124.565 91.116C124.253 90.7953 124.006 90.4097 123.824 89.959C123.651 89.4997 123.564 88.9883 123.564 88.425C123.564 87.8617 123.651 87.3547 123.824 86.904C123.997 86.4533 124.236 86.0677 124.539 85.747C124.851 85.4263 125.224 85.1837 125.657 85.019C126.09 84.8457 126.567 84.759 127.087 84.759C127.607 84.759 128.075 84.8457 128.491 85.019C128.916 85.1923 129.275 85.4307 129.57 85.734C129.873 86.0373 130.103 86.397 130.259 86.813C130.424 87.229 130.506 87.6797 130.506 88.165C130.506 88.295 130.502 88.4163 130.493 88.529C130.493 88.6417 130.484 88.7587 130.467 88.88H124.773C124.799 89.244 124.877 89.5647 125.007 89.842C125.137 90.1193 125.306 90.3533 125.514 90.544C125.722 90.726 125.96 90.869 126.229 90.973C126.498 91.0683 126.784 91.116 127.087 91.116C127.624 91.116 128.058 90.9947 128.387 90.752C128.725 90.5093 128.959 90.193 129.089 89.803H130.363ZM129.05 83.303L128.465 84.031L127.126 83.186L125.787 84.031L125.202 83.303L127.126 82.068L129.05 83.303ZM142.35 87.97C142.35 87.2333 142.173 86.683 141.817 86.319C141.462 85.955 140.99 85.773 140.4 85.773C139.802 85.773 139.317 85.9637 138.944 86.345C138.572 86.7263 138.385 87.3027 138.385 88.074V92H137.215V87.97C137.215 87.2333 137.038 86.683 136.682 86.319C136.327 85.955 135.855 85.773 135.265 85.773C134.667 85.773 134.182 85.9637 133.809 86.345C133.437 86.7263 133.25 87.3027 133.25 88.074V92H132.067V84.876H133.25V85.903C133.484 85.5217 133.801 85.2357 134.199 85.045C134.598 84.8457 135.031 84.746 135.499 84.746C136.089 84.746 136.613 84.876 137.072 85.136C137.532 85.396 137.878 85.7947 138.112 86.332C138.32 85.812 138.654 85.4177 139.113 85.149C139.581 84.8803 140.088 84.746 140.634 84.746C141.042 84.746 141.419 84.811 141.765 84.941C142.121 85.0623 142.428 85.253 142.688 85.513C142.948 85.7643 143.152 86.0807 143.299 86.462C143.447 86.8433 143.52 87.2897 143.52 87.801V92H142.35V87.97ZM149.148 85.851H148.225V84.876H149.148V84.369C149.148 83.5717 149.351 82.991 149.759 82.627C150.166 82.2543 150.829 82.068 151.748 82.068V83.056C151.21 83.056 150.838 83.16 150.63 83.368C150.43 83.5673 150.331 83.901 150.331 84.369V84.876H151.826V85.851H150.331V92H149.148V85.851ZM153.205 84.876H154.388V92H153.205V84.876ZM153.816 83.719C153.573 83.719 153.37 83.641 153.205 83.485C153.049 83.3203 152.971 83.1167 152.971 82.874C152.971 82.6313 153.049 82.432 153.205 82.276C153.37 82.1113 153.573 82.029 153.816 82.029C154.041 82.029 154.232 82.1113 154.388 82.276C154.553 82.432 154.635 82.6313 154.635 82.874C154.635 83.1167 154.553 83.3203 154.388 83.485C154.232 83.641 154.041 83.719 153.816 83.719ZM156.404 82.38H157.587V92H156.404V82.38ZM162.633 85.76C162.347 85.76 162.074 85.8077 161.814 85.903C161.554 85.9983 161.324 86.137 161.125 86.319C160.925 86.501 160.761 86.7263 160.631 86.995C160.501 87.2637 160.418 87.5713 160.384 87.918H164.882C164.882 87.5713 164.821 87.2637 164.7 86.995C164.587 86.7263 164.427 86.501 164.219 86.319C164.011 86.137 163.768 85.9983 163.491 85.903C163.222 85.8077 162.936 85.76 162.633 85.76ZM165.961 89.803C165.865 90.1323 165.722 90.44 165.532 90.726C165.35 91.0033 165.12 91.246 164.843 91.454C164.574 91.662 164.258 91.8267 163.894 91.948C163.53 92.0607 163.127 92.117 162.685 92.117C162.173 92.117 161.701 92.0303 161.268 91.857C160.843 91.6837 160.475 91.4367 160.163 91.116C159.851 90.7953 159.604 90.4097 159.422 89.959C159.248 89.4997 159.162 88.9883 159.162 88.425C159.162 87.8617 159.248 87.3547 159.422 86.904C159.595 86.4533 159.833 86.0677 160.137 85.747C160.449 85.4263 160.821 85.1837 161.255 85.019C161.688 84.8457 162.165 84.759 162.685 84.759C163.205 84.759 163.673 84.8457 164.089 85.019C164.513 85.1923 164.873 85.4307 165.168 85.734C165.471 86.0373 165.701 86.397 165.857 86.813C166.021 87.229 166.104 87.6797 166.104 88.165C166.104 88.295 166.099 88.4163 166.091 88.529C166.091 88.6417 166.082 88.7587 166.065 88.88H160.371C160.397 89.244 160.475 89.5647 160.605 89.842C160.735 90.1193 160.904 90.3533 161.112 90.544C161.32 90.726 161.558 90.869 161.827 90.973C162.095 91.0683 162.381 91.116 162.685 91.116C163.222 91.116 163.655 90.9947 163.985 90.752C164.323 90.5093 164.557 90.193 164.687 89.803H165.961ZM170.689 88.412C170.689 87.8573 170.776 87.3547 170.949 86.904C171.122 86.4533 171.361 86.072 171.664 85.76C171.967 85.4393 172.323 85.1923 172.73 85.019C173.146 84.8457 173.597 84.759 174.082 84.759C174.645 84.759 175.161 84.889 175.629 85.149C176.106 85.4003 176.47 85.734 176.721 86.15V84.135H174.875V83.186H176.721V82.38H177.917V83.186H178.71V84.135H177.917V92H176.721V90.661C176.504 91.0597 176.171 91.402 175.72 91.688C175.269 91.974 174.719 92.117 174.069 92.117C173.592 92.117 173.146 92.0303 172.73 91.857C172.323 91.675 171.967 91.4237 171.664 91.103C171.361 90.7737 171.122 90.3837 170.949 89.933C170.776 89.4737 170.689 88.9667 170.689 88.412ZM176.721 88.425C176.721 88.009 176.656 87.6407 176.526 87.32C176.396 86.9907 176.218 86.7133 175.993 86.488C175.776 86.2627 175.521 86.0893 175.226 85.968C174.931 85.8467 174.624 85.786 174.303 85.786C173.974 85.786 173.662 85.8467 173.367 85.968C173.081 86.0807 172.83 86.2497 172.613 86.475C172.396 86.6917 172.223 86.9647 172.093 87.294C171.963 87.6233 171.898 87.996 171.898 88.412C171.898 88.828 171.963 89.205 172.093 89.543C172.223 89.8723 172.396 90.1497 172.613 90.375C172.83 90.6003 173.081 90.7737 173.367 90.895C173.662 91.0163 173.974 91.077 174.303 91.077C174.624 91.077 174.931 91.0207 175.226 90.908C175.521 90.7867 175.776 90.6133 175.993 90.388C176.218 90.154 176.396 89.8723 176.526 89.543C176.656 89.2137 176.721 88.841 176.721 88.425ZM179.903 84.876H181.086V92H179.903V84.876ZM182.009 82.614L179.89 83.901L179.305 83.082L181.424 81.756L182.009 82.614ZM188.316 87.97C188.316 87.2333 188.134 86.683 187.77 86.319C187.406 85.955 186.925 85.773 186.327 85.773C185.72 85.773 185.226 85.9637 184.845 86.345C184.472 86.7177 184.286 87.2897 184.286 88.061V92H183.103V84.876H184.286V85.89C184.52 85.5173 184.836 85.2357 185.235 85.045C185.642 84.8457 186.088 84.746 186.574 84.746C186.99 84.746 187.375 84.811 187.731 84.941C188.086 85.0623 188.394 85.253 188.654 85.513C188.914 85.7643 189.117 86.0807 189.265 86.462C189.412 86.8433 189.486 87.2897 189.486 87.801V92H188.316V87.97ZM191.418 82.38H192.601V85.903C192.835 85.5217 193.16 85.2357 193.576 85.045C193.992 84.8457 194.451 84.746 194.954 84.746C195.353 84.746 195.725 84.811 196.072 84.941C196.419 85.0623 196.718 85.253 196.969 85.513C197.229 85.7643 197.433 86.0807 197.58 86.462C197.727 86.8433 197.801 87.2897 197.801 87.801V92H196.631V87.97C196.631 87.2333 196.449 86.683 196.085 86.319C195.721 85.955 195.24 85.773 194.642 85.773C194.035 85.773 193.541 85.9637 193.16 86.345C192.787 86.7177 192.601 87.2897 192.601 88.061V92H191.418V82.38ZM203.199 82.38H204.382V88.035L207.125 84.876H208.776L205.422 88.425L208.789 92H207.177L204.382 88.854V92H203.199V82.38ZM212.919 85.76C212.633 85.76 212.36 85.8077 212.1 85.903C211.84 85.9983 211.61 86.137 211.411 86.319C211.211 86.501 211.047 86.7263 210.917 86.995C210.787 87.2637 210.704 87.5713 210.67 87.918H215.168C215.168 87.5713 215.107 87.2637 214.986 86.995C214.873 86.7263 214.713 86.501 214.505 86.319C214.297 86.137 214.054 85.9983 213.777 85.903C213.508 85.8077 213.222 85.76 212.919 85.76ZM216.247 89.803C216.151 90.1323 216.008 90.44 215.818 90.726C215.636 91.0033 215.406 91.246 215.129 91.454C214.86 91.662 214.544 91.8267 214.18 91.948C213.816 92.0607 213.413 92.117 212.971 92.117C212.459 92.117 211.987 92.0303 211.554 91.857C211.129 91.6837 210.761 91.4367 210.449 91.116C210.137 90.7953 209.89 90.4097 209.708 89.959C209.534 89.4997 209.448 88.9883 209.448 88.425C209.448 87.8617 209.534 87.3547 209.708 86.904C209.881 86.4533 210.119 86.0677 210.423 85.747C210.735 85.4263 211.107 85.1837 211.541 85.019C211.974 84.8457 212.451 84.759 212.971 84.759C213.491 84.759 213.959 84.8457 214.375 85.019C214.799 85.1923 215.159 85.4307 215.454 85.734C215.757 86.0373 215.987 86.397 216.143 86.813C216.307 87.229 216.39 87.6797 216.39 88.165C216.39 88.295 216.385 88.4163 216.377 88.529C216.377 88.6417 216.368 88.7587 216.351 88.88H210.657C210.683 89.244 210.761 89.5647 210.891 89.842C211.021 90.1193 211.19 90.3533 211.398 90.544C211.606 90.726 211.844 90.869 212.113 90.973C212.381 91.0683 212.667 91.116 212.971 91.116C213.508 91.116 213.941 90.9947 214.271 90.752C214.609 90.5093 214.843 90.193 214.973 89.803H216.247ZM212.087 81.756L214.206 83.082L213.621 83.901L211.502 82.614L212.087 81.756ZM228.234 87.97C228.234 87.2333 228.057 86.683 227.701 86.319C227.346 85.955 226.874 85.773 226.284 85.773C225.686 85.773 225.201 85.9637 224.828 86.345C224.456 86.7263 224.269 87.3027 224.269 88.074V92H223.099V87.97C223.099 87.2333 222.922 86.683 222.566 86.319C222.211 85.955 221.739 85.773 221.149 85.773C220.551 85.773 220.066 85.9637 219.693 86.345C219.321 86.7263 219.134 87.3027 219.134 88.074V92H217.951V84.876H219.134V85.903C219.368 85.5217 219.685 85.2357 220.083 85.045C220.482 84.8457 220.915 84.746 221.383 84.746C221.973 84.746 222.497 84.876 222.956 85.136C223.416 85.396 223.762 85.7947 223.996 86.332C224.204 85.812 224.538 85.4177 224.997 85.149C225.465 84.8803 225.972 84.746 226.518 84.746C226.926 84.746 227.303 84.811 227.649 84.941C228.005 85.0623 228.312 85.253 228.572 85.513C228.832 85.7643 229.036 86.0807 229.183 86.462C229.331 86.8433 229.404 87.2897 229.404 87.801V92H228.234V87.97Z" fill="#8C97B4"/>
<rect x="0.5" y="0.5" width="337" height="128" rx="3.5" stroke="#8C97B4" stroke-opacity="0.69" stroke-dasharray="3 3"/>
</svg>
